HIERARCHY
ROOT Hips
{
	OFFSET 0.000000 100.481300 0.000000
	CHANNELS 6 Xposition Yposition Zposition Xrotation Yrotation Zrotation 
	JOINT Spine
	{
		OFFSET -0.279200 12.230698 -2.892100
		CHANNELS 3 Xrotation Yrotation Zrotation
		JOINT Spine1
		{
			OFFSET -0.232667 10.192268 -1.242267
			CHANNELS 3 Xrotation Yrotation Zrotation
			JOINT Spine1_split
			{
				OFFSET -0.232667 10.192268 -1.242267
				CHANNELS 3 Xrotation Yrotation Zrotation
				JOINT Spine2
				{
					OFFSET -0.232667 10.192268 -1.242267
					CHANNELS 3 Xrotation Yrotation Zrotation
					JOINT Neck
					{
						OFFSET -0.418800 17.814194 8.416900
						CHANNELS 3 Xrotation Yrotation Zrotation
						JOINT Head
						{
							OFFSET 0.000000 7.031097 3.806800
							CHANNELS 3 Xrotation Yrotation Zrotation
							JOINT HeadTop_End
							{
								OFFSET 0.000000 24.646606 12.978600
								CHANNELS 3 Xrotation Yrotation Zrotation
								End Site
								{
									OFFSET 0.000000 0.000000 0.000000
								}
							}
						}
					}
					JOINT LeftShoulder
					{
						OFFSET 8.476499 7.247704 -3.868750
						CHANNELS 3 Xrotation Yrotation Zrotation
						JOINT LeftShoulder_split
						{
							OFFSET 8.476499 7.247704 -3.868750
							CHANNELS 3 Xrotation Yrotation Zrotation
							JOINT LeftArm
							{
								OFFSET 9.308998 -2.777710 0.208600
								CHANNELS 3 Xrotation Yrotation Zrotation
								JOINT LeftForeArm
								{
									OFFSET 29.972298 0.000000 0.000000
									CHANNELS 3 Xrotation Yrotation Zrotation
									JOINT LeftHand
									{
										OFFSET 26.026505 0.000000 0.000000
										CHANNELS 3 Xrotation Yrotation Zrotation
										JOINT LeftHandThumb1
										{
											OFFSET 12.240501 -7.147949 9.207150
											CHANNELS 3 Xrotation Yrotation Zrotation
											JOINT LeftHandThumb2
											{
												OFFSET 4.138618 -2.389435 2.389433
												CHANNELS 3 Xrotation Yrotation Zrotation
												JOINT LeftHandThumb3
												{
													OFFSET 2.726913 -1.574387 1.574386
													CHANNELS 3 Xrotation Yrotation Zrotation
													JOINT LeftHandThumb4
													{
														OFFSET 3.941010 -2.275345 2.275342
														CHANNELS 3 Xrotation Yrotation Zrotation
														End Site
														{
															OFFSET 0.000000 0.000000 0.000000
														}
													}
												}
											}
										}
										JOINT LeftHandIndex1
										{
											OFFSET 24.424698 -1.985611 5.953459
											CHANNELS 3 Xrotation Yrotation Zrotation
											JOINT LeftHandIndex2
											{
												OFFSET 6.426697 0.000000 0.000000
												CHANNELS 3 Xrotation Yrotation Zrotation
												JOINT LeftHandIndex3
												{
													OFFSET 5.337898 0.000000 0.000000
													CHANNELS 3 Xrotation Yrotation Zrotation
													JOINT LeftHandIndex4
													{
														OFFSET 4.409401 0.000000 0.000000
														CHANNELS 3 Xrotation Yrotation Zrotation
														End Site
														{
															OFFSET 0.000000 0.000000 0.000000
														}
													}
												}
											}
										}
										JOINT LeftHandMiddle1
										{
											OFFSET 23.810104 0.000000 0.000000
											CHANNELS 3 Xrotation Yrotation Zrotation
											JOINT LeftHandMiddle2
											{
												OFFSET 7.176498 0.000000 0.000000
												CHANNELS 3 Xrotation Yrotation Zrotation
												JOINT LeftHandMiddle3
												{
													OFFSET 6.774902 0.000000 0.000000
													CHANNELS 3 Xrotation Yrotation Zrotation
													JOINT LeftHandMiddle4
													{
														OFFSET 5.403328 0.000000 0.000000
														CHANNELS 3 Xrotation Yrotation Zrotation
														End Site
														{
															OFFSET 0.000000 0.000000 0.000000
														}
													}
												}
											}
										}
										JOINT LeftHandRing1
										{
											OFFSET 22.908401 -0.839279 -6.020567
											CHANNELS 3 Xrotation Yrotation Zrotation
											JOINT LeftHandRing2
											{
												OFFSET 6.337502 0.000000 0.000000
												CHANNELS 3 Xrotation Yrotation Zrotation
												JOINT LeftHandRing3
												{
													OFFSET 5.779297 0.000000 0.000000
													CHANNELS 3 Xrotation Yrotation Zrotation
													JOINT LeftHandRing4
													{
														OFFSET 4.965698 0.000000 0.000000
														CHANNELS 3 Xrotation Yrotation Zrotation
														End Site
														{
															OFFSET 0.000000 0.000000 0.000000
														}
													}
												}
											}
										}
										JOINT LeftHandPinky1
										{
											OFFSET 20.037003 -1.530319 -10.950146
											CHANNELS 3 Xrotation Yrotation Zrotation
											JOINT LeftHandPinky2
											{
												OFFSET 5.254700 0.000000 0.000000
												CHANNELS 3 Xrotation Yrotation Zrotation
												JOINT LeftHandPinky3
												{
													OFFSET 4.810204 0.000000 0.000000
													CHANNELS 3 Xrotation Yrotation Zrotation
													JOINT LeftHandPinky4
													{
														OFFSET 3.647202 0.000000 0.000000
														CHANNELS 3 Xrotation Yrotation Zrotation
														End Site
														{
															OFFSET 0.000000 0.000000 0.000000
														}
													}
												}
											}
										}
									}
								}
							}
						}
					}
					JOINT RightShoulder
					{
						OFFSET -7.570500 7.247704 -3.868750
						CHANNELS 3 Xrotation Yrotation Zrotation
						JOINT RightShoulder_split
						{
							OFFSET -7.570500 7.247704 -3.868750
							CHANNELS 3 Xrotation Yrotation Zrotation
							JOINT RightArm
							{
								OFFSET -9.308998 -2.777710 0.208500
								CHANNELS 3 Xrotation Yrotation Zrotation
								JOINT RightForeArm
								{
									OFFSET -29.972300 0.000000 0.000000
									CHANNELS 3 Xrotation Yrotation Zrotation
									JOINT RightHand
									{
										OFFSET -26.026505 0.000000 0.000000
										CHANNELS 3 Xrotation Yrotation Zrotation
										JOINT RightHandThumb1
										{
											OFFSET -12.240601 -7.148026 9.207092
											CHANNELS 3 Xrotation Yrotation Zrotation
											JOINT RightHandThumb2
											{
												OFFSET -4.138618 -2.389435 2.389433
												CHANNELS 3 Xrotation Yrotation Zrotation
												JOINT RightHandThumb3
												{
													OFFSET -2.726974 -1.574417 1.574421
													CHANNELS 3 Xrotation Yrotation Zrotation
													JOINT RightHandThumb4
													{
														OFFSET -3.941010 -2.275345 2.275343
														CHANNELS 3 Xrotation Yrotation Zrotation
														End Site
														{
															OFFSET 0.000000 0.000000 0.000000
														}
													}
												}
											}
										}
										JOINT RightHandIndex1
										{
											OFFSET -24.424698 -1.985657 5.953444
											CHANNELS 3 Xrotation Yrotation Zrotation
											JOINT RightHandIndex2
											{
												OFFSET -6.426697 0.000000 0.000000
												CHANNELS 3 Xrotation Yrotation Zrotation
												JOINT RightHandIndex3
												{
													OFFSET -5.337898 0.000000 0.000000
													CHANNELS 3 Xrotation Yrotation Zrotation
													JOINT RightHandIndex4
													{
														OFFSET -4.409401 0.000000 0.000000
														CHANNELS 3 Xrotation Yrotation Zrotation
														End Site
														{
															OFFSET 0.000000 0.000000 0.000000
														}
													}
												}
											}
										}
										JOINT RightHandMiddle1
										{
											OFFSET -23.810097 0.000000 0.000000
											CHANNELS 3 Xrotation Yrotation Zrotation
											JOINT RightHandMiddle2
											{
												OFFSET -7.176498 0.000000 0.000000
												CHANNELS 3 Xrotation Yrotation Zrotation
												JOINT RightHandMiddle3
												{
													OFFSET -6.774902 0.000000 0.000000
													CHANNELS 3 Xrotation Yrotation Zrotation
													JOINT RightHandMiddle4
													{
														OFFSET -5.403328 0.000000 0.000000
														CHANNELS 3 Xrotation Yrotation Zrotation
														End Site
														{
															OFFSET 0.000000 0.000000 0.000000
														}
													}
												}
											}
										}
										JOINT RightHandRing1
										{
											OFFSET -22.908302 -0.839325 -6.020576
											CHANNELS 3 Xrotation Yrotation Zrotation
											JOINT RightHandRing2
											{
												OFFSET -6.337502 0.000000 0.000000
												CHANNELS 3 Xrotation Yrotation Zrotation
												JOINT RightHandRing3
												{
													OFFSET -5.779297 0.000000 0.000000
													CHANNELS 3 Xrotation Yrotation Zrotation
													JOINT RightHandRing4
													{
														OFFSET -4.965698 0.000000 0.000000
														CHANNELS 3 Xrotation Yrotation Zrotation
														End Site
														{
															OFFSET 0.000000 0.000000 0.000000
														}
													}
												}
											}
										}
										JOINT RightHandPinky1
										{
											OFFSET -20.037003 -1.530334 -10.950259
											CHANNELS 3 Xrotation Yrotation Zrotation
											JOINT RightHandPinky2
											{
												OFFSET -5.254700 0.000000 0.000000
												CHANNELS 3 Xrotation Yrotation Zrotation
												JOINT RightHandPinky3
												{
													OFFSET -4.810204 0.000000 0.000000
													CHANNELS 3 Xrotation Yrotation Zrotation
													JOINT RightHandPinky4
													{
														OFFSET -3.647202 0.000000 0.000000
														CHANNELS 3 Xrotation Yrotation Zrotation
														End Site
														{
															OFFSET 0.000000 0.000000 0.000000
														}
													}
												}
											}
										}
									}
								}
							}
						}
					}
				}
			}
		}
	}
	JOINT LeftUpLeg
	{
		OFFSET 15.427100 -6.655098 0.678600
		CHANNELS 3 Xrotation Yrotation Zrotation
		JOINT LeftLeg
		{
			OFFSET 4.081073 -39.591068 13.024000
			CHANNELS 3 Xrotation Yrotation Zrotation
			JOINT LeftFoot
			{
				OFFSET -4.081074 -37.707932 -15.979700
				CHANNELS 3 Xrotation Yrotation Zrotation
				JOINT LeftToeBase
				{
					OFFSET 5.346399 -15.068900 20.645000
					CHANNELS 3 Xrotation Yrotation Zrotation
					JOINT LeftToe_End
					{
						OFFSET 2.754700 0.931300 11.300900
						CHANNELS 3 Xrotation Yrotation Zrotation
						End Site
						{
							OFFSET 0.000000 0.000000 0.000000
						}
					}
				}
			}
		}
	}
	JOINT RightUpLeg
	{
		OFFSET -15.569500 -6.655098 0.678600
		CHANNELS 3 Xrotation Yrotation Zrotation
		JOINT RightLeg
		{
			OFFSET -4.081825 -39.591045 13.023800
			CHANNELS 3 Xrotation Yrotation Zrotation
			JOINT RightFoot
			{
				OFFSET 4.081824 -37.707954 -15.979600
				CHANNELS 3 Xrotation Yrotation Zrotation
				JOINT RightToeBase
				{
					OFFSET -5.346400 -15.068900 20.645000
					CHANNELS 3 Xrotation Yrotation Zrotation
					JOINT RightToe_End
					{
						OFFSET -2.754700 0.931300 11.300900
						CHANNELS 3 Xrotation Yrotation Zrotation
						End Site
						{
							OFFSET 0.000000 0.000000 0.000000
						}
					}
				}
			}
		}
	}
}
MOTION
Frames: 4
Frame Time: 0.016667
0.685938 48.145035 19.690920 10.256789 1.141069 1.926858 6.863204 -1.689371 -1.369077 12.577074 -1.034805 -1.095898 0.000000 0.000000 0.000000 12.570155 -1.077110 -1.099538 -0.427491 -0.653576 -0.369724 -52.699858 2.125732 -7.829016 -0.000001 -0.000000 -0.000000 2.038155 -12.501285 5.547275 0.000000 0.000000 0.000000 -60.008498 -29.861700 -11.556444 0.000002 -114.301215 0.000002 -11.910115 -28.831301 34.008045 20.858797 4.366358 2.192830 0.280539 11.989285 -27.457514 -10.342407 22.892267 8.820835 0.000002 -0.000000 0.000000 0.425214 1.444474 -13.828657 0.836194 3.018165 -30.964970 0.004673 -0.234191 2.285930 0.000000 0.000000 -0.000003 0.528399 5.942699 -8.228424 0.952407 3.203614 -33.106128 0.082049 0.978077 -9.590022 0.000000 -0.000000 0.000000 0.930012 7.386336 -10.768648 1.068078 3.374090 -35.122161 0.007244 0.291623 -2.846946 -0.000001 -0.000000 0.000001 0.270929 7.579817 -14.433271 0.945469 3.192962 -32.981676 0.003041 -0.188820 1.842891 0.000001 -0.000000 0.000000 1.433103 10.850707 -3.496005 0.000000 0.000000 0.000000 -73.306877 34.141257 27.922114 -0.000003 117.257819 0.000003 11.925576 3.902114 -19.976008 0.467952 9.476100 18.594365 2.135803 -23.166509 17.501144 -9.703706 -24.362257 -9.841074 -0.000000 0.000006 -0.000000 2.448384 2.152558 1.738841 0.603754 -2.295183 29.472495 0.000808 0.087270 -1.071323 0.000002 0.000001 -0.000000 -0.030331 -3.619542 -3.130918 1.500618 -3.425971 47.297766 0.001281 -0.109391 1.342970 -0.000000 0.000002 -0.000000 0.239628 -6.342807 2.621624 0.613282 -2.311942 29.709458 0.060214 -0.747283 9.213456 0.000000 0.000001 -0.000000 -11.640140 -11.617289 13.904414 0.284062 -1.603165 20.094432 0.029767 -0.526291 6.474546 0.000000 -0.000001 -0.000000 -96.127632 -12.997361 17.201150 82.799426 -0.424093 -3.670624 6.158448 -5.988283 -11.926328 -0.103119 0.000002 -0.000000 -0.000000 0.000001 0.000000 -98.408129 16.962526 -14.864257 84.223889 1.028929 1.696768 7.672026 -0.747646 13.156564 -0.191627 -0.000003 -0.000000 0.000000 -0.000001 0.000000 
0.697479 48.125389 19.654963 10.526962 1.239522 1.927738 7.088941 -1.646361 -1.366213 12.767365 -1.020628 -1.140127 0.000000 0.000000 0.000000 12.760492 -1.062331 -1.143888 1.301026 -0.746534 -0.517728 -52.329788 1.916441 -7.951303 -0.000001 0.000000 0.000000 2.068312 -12.394304 6.151574 0.000000 0.000000 0.000000 -58.624449 -28.929888 -12.183156 0.000037 -114.948040 0.000035 -11.192799 -27.755679 33.451131 20.859688 4.363801 2.192670 0.280845 11.988512 -27.457584 -10.341907 22.894418 8.821851 0.000002 -0.000001 0.000002 0.424906 1.444534 -13.827430 0.836210 3.018190 -30.965219 0.004671 -0.234167 2.285691 0.000000 -0.000000 -0.000001 0.528584 5.943463 -8.229834 0.952406 3.203615 -33.106115 0.082044 0.978068 -9.589922 -0.000000 -0.000000 0.000000 0.929985 7.386360 -10.768204 1.068076 3.374084 -35.122089 0.007252 0.291668 -2.847383 -0.000001 0.000000 -0.000001 0.271096 7.580053 -14.432514 0.945451 3.192939 -32.981399 0.003033 -0.188794 1.842642 -0.000000 -0.000000 0.000000 1.461466 11.134546 -3.330571 0.000000 0.000000 0.000000 -71.860482 33.821669 27.199861 0.000005 117.434475 -0.000003 12.138206 3.880013 -18.450872 0.466638 9.475918 18.593621 2.136592 -23.165288 17.504144 -9.701738 -24.360891 -9.839267 -0.000000 0.000002 0.000001 2.449269 2.151591 1.737206 0.603718 -2.295113 29.471515 0.000818 0.087365 -1.072533 0.000001 -0.000001 -0.000002 -0.030352 -3.619689 -3.131639 1.500585 -3.425940 47.297294 0.001283 -0.109396 1.343023 -0.000001 0.000002 -0.000000 0.239629 -6.342695 2.621589 0.613279 -2.311935 29.709431 0.060224 -0.747340 9.214178 0.000000 -0.000001 0.000001 -11.640358 -11.617683 13.902627 0.284040 -1.603109 20.093566 0.029761 -0.526241 6.473908 -0.000000 -0.000001 -0.000001 -96.530012 -12.947181 17.062149 82.716350 -0.358508 -3.654177 6.340775 -6.025245 -11.837890 -0.103119 0.000001 -0.000000 0.000000 -0.000001 0.000000 -98.709074 17.080568 -14.890859 84.187027 0.948151 1.699626 7.785669 -0.721193 13.209100 -0.191627 -0.000002 -0.000000 -0.000000 0.000000 -0.000000 
0.706405 48.094193 19.649624 10.816490 1.342336 1.955718 7.325944 -1.597770 -1.369103 12.972732 -0.981566 -1.186087 0.000000 0.000000 0.000000 12.966026 -1.022760 -1.189410 3.122171 -0.859578 -0.692142 -51.579348 1.594024 -8.096118 -0.000000 0.000000 -0.000000 2.114946 -12.310445 6.918393 0.000000 0.000000 0.000000 -56.643882 -27.956548 -13.096895 0.000034 -115.667710 0.000033 -10.218830 -26.532476 32.956059 20.860431 4.360974 2.192177 0.281658 11.987415 -27.457767 -10.341472 22.896478 8.823428 0.000001 0.000001 -0.000000 0.424580 1.444432 -13.825829 0.836222 3.018207 -30.965428 0.004668 -0.234106 2.285092 -0.000000 -0.000000 0.000000 0.528703 5.944119 -8.230287 0.952398 3.203600 -33.105947 0.082043 0.978061 -9.589868 -0.000000 0.000000 -0.000000 0.929922 7.386429 -10.767152 1.068074 3.374069 -35.121963 0.007252 0.291746 -2.848148 -0.000000 0.000000 -0.000000 0.271291 7.580348 -14.431327 0.945427 3.192903 -32.980979 0.003033 -0.188757 1.842272 -0.000000 0.000000 -0.000000 1.487708 11.465023 -3.085985 0.000000 0.000000 0.000000 -69.923105 33.437901 26.381916 0.000005 117.615967 -0.000002 12.013534 4.096479 -16.866141 0.464866 9.475457 18.592472 2.137322 -23.163712 17.507025 -9.699716 -24.359398 -9.837466 -0.000001 0.000003 -0.000001 2.450248 2.150671 1.735400 0.603673 -2.295031 29.470296 0.000821 0.087464 -1.073714 -0.000000 -0.000000 0.000000 -0.030376 -3.619792 -3.132375 1.500525 -3.425894 47.296335 0.001283 -0.109392 1.343036 0.000000 0.000004 -0.000001 0.239622 -6.342673 2.621545 0.613282 -2.311942 29.709359 0.060235 -0.747397 9.214944 -0.000001 -0.000001 -0.000000 -11.640430 -11.618167 13.900750 0.284007 -1.603026 20.092422 0.029756 -0.526189 6.473279 0.000000 0.000001 0.000000 -96.913780 -12.894426 16.928407 82.673259 -0.309966 -3.653708 6.452165 -6.041082 -11.807403 -0.103119 0.000002 -0.000000 -0.000000 -0.000001 -0.000000 -99.032053 17.248523 -14.943552 84.199027 0.907720 1.704495 7.857088 -0.702488 13.275114 -0.191627 -0.000001 -0.000000 -0.000000 0.000000 0.000000 
0.711151 48.068878 19.662470 11.095683 1.438926 1.990881 7.561477 -1.546524 -1.376606 13.167894 -0.921942 -1.227742 0.000000 0.000000 0.000000 13.161521 -0.962647 -1.229826 4.847724 -0.977130 -0.865296 -50.472349 1.193751 -8.236327 -0.000000 0.000000 0.000000 2.167037 -12.215276 7.794458 0.000000 0.000000 0.000000 -54.283229 -27.085337 -14.223961 0.000029 -116.372435 0.000030 -9.191116 -25.254527 32.508395 20.860984 4.358150 2.190969 0.282790 11.986097 -27.457991 -10.341004 22.898301 8.825396 0.000001 -0.000000 -0.000000 0.424236 1.444154 -13.823950 0.836227 3.018219 -30.965571 0.004670 -0.234021 2.284266 -0.000000 0.000000 -0.000001 0.528792 5.944702 -8.230374 0.952383 3.203581 -33.105698 0.082048 0.978057 -9.589832 -0.000000 0.000000 0.000000 0.929844 7.386551 -10.765691 1.068056 3.374062 -35.121809 0.007253 0.291846 -2.849119 0.000001 -0.000000 0.000001 0.271531 7.580720 -14.429896 0.945404 3.192869 -32.980572 0.003034 -0.188712 1.841836 -0.000000 0.000000 -0.000001 1.506028 11.775373 -2.798578 0.000000 0.000000 0.000000 -67.693629 33.040350 25.501054 -0.000000 117.763212 -0.000002 11.410882 4.473175 -15.347879 0.463260 9.474897 18.591046 2.137490 -23.162037 17.507252 -9.697820 -24.358207 -9.835805 0.000000 0.000002 -0.000002 2.451272 2.149756 1.734117 0.603624 -2.294952 29.469162 0.000822 0.087553 -1.074838 0.000000 0.000001 -0.000001 -0.030370 -3.619860 -3.131875 1.500464 -3.425829 47.295218 0.001283 -0.109397 1.343046 0.000000 -0.000002 0.000001 0.239657 -6.342773 2.622036 0.613279 -2.311938 29.709369 0.060241 -0.747450 9.215659 -0.000000 0.000000 -0.000000 -11.640139 -11.619109 13.900466 0.283977 -1.602933 20.091263 0.029749 -0.526144 6.472753 0.000000 -0.000002 -0.000001 -97.232654 -12.846408 16.816764 82.651791 -0.283822 -3.664837 6.494408 -6.034207 -11.833754 -0.103119 0.000002 -0.000000 0.000000 -0.000000 0.000000 -99.318921 17.420358 -15.004597 84.233458 0.895992 1.712594 7.878346 -0.699172 13.352042 -0.191627 -0.000002 -0.000000 -0.000000 0.000000 -0.000000 
